<?xml version="1.0" encoding="UTF-8"?><svg id="Layer_1" xmlns="http://www.w3.org/2000/svg" xmlns:xlink="http://www.w3.org/1999/xlink" viewBox="0 0 1000 1000"><defs><style>.cls-1{fill:none;}.cls-2{fill:url(#linear-gradient-3);}.cls-2,.cls-3,.cls-4,.cls-5{fill-rule:evenodd;}.cls-6{clip-path:url(#clippath-1);}.cls-3{fill:url(#linear-gradient-5);}.cls-4{fill:url(#linear-gradient-2);}.cls-5{fill:url(#linear-gradient-4);}.cls-7{fill:url(#linear-gradient);}.cls-8{clip-path:url(#clippath);}</style><clipPath id="clippath"><rect class="cls-1" width="1000" height="1000"/></clipPath><clipPath id="clippath-1"><circle class="cls-1" cx="500" cy="500" r="430.03"/></clipPath><linearGradient id="linear-gradient" x1=".67" y1="1000.8" x2="2.1" y2="1000.8" gradientTransform="translate(-806915.74 364272.96) rotate(65.66) scale(884.65 -884.65)" gradientUnits="userSpaceOnUse"><stop offset="0" stop-color="#2a335c"/><stop offset=".5" stop-color="#563153"/><stop offset="1" stop-color="#db2b38"/></linearGradient><linearGradient id="linear-gradient-2" x1=".27" y1="1001.04" x2="1.7" y2="1001.04" gradientTransform="translate(-284673.01 231673.76) rotate(50.87) scale(366.71 -366.71)" gradientUnits="userSpaceOnUse"><stop offset="0" stop-color="#2a335c"/><stop offset="1" stop-color="#db2b38"/></linearGradient><linearGradient id="linear-gradient-3" x1=".7" y1="1000.04" x2="2.13" y2="1000.04" gradientTransform="translate(-365430.36 162657.98) rotate(66.04) scale(399.99 -399.98)" xlink:href="#linear-gradient-2"/><linearGradient id="linear-gradient-4" x1=".66" y1="1000.69" x2="2.09" y2="1000.69" gradientTransform="translate(-398467.8 271716.9) rotate(55.73) scale(481.84 -481.84)" gradientUnits="userSpaceOnUse"><stop offset="0" stop-color="#db2b38"/><stop offset="1" stop-color="#2a335c"/></linearGradient><linearGradient id="linear-gradient-5" x1=".97" y1="1001.09" x2="2.4" y2="1001.09" gradientTransform="translate(399606.64 -174932.93) rotate(-113.82) scale(435.59 -435.58)" xlink:href="#linear-gradient-4"/></defs><g class="cls-8"><g class="cls-6"><rect class="cls-7" x="-454.97" y="22.41" width="1432.76" height="955.17"/><path class="cls-4" d="M31.68,22.41h946.11v179.77c-29.88-6.61-59.27-14.57-85.97-17.88-81.8-10.04-159.93,16.65-224.71,66.37-216.63,166.54-295.37,498.65-594.04,556.82-37.35,7.35-76.29,10.16-114.25,6.37-46.66-4.65-92.58-19.23-131.76-45.19-29.51-19.59-55.35-45.68-72.5-76.9-13.47-24.61-21.43-52.17-22.29-80.21-3.67-130.91,119.27-201.57,222.51-249.08,53.88-24.74,117.93-50.82,146.21-107.15,38.45-76.29-6.12-150.13-52.04-211.12-5.63-7.47-11.39-14.69-17.27-21.8Z"/><path class="cls-2" d="M977.71,202.16v119.9c.14,4.22.14,8.45,0,12.67-3.94,137.62-140.58,213.24-255.94,264.47-61.98,27.52-135.65,56.55-168.18,119.22-44.23,84.89,7.04,167.05,59.86,234.9,6.48,8.31,13.1,16.35,19.86,24.25H-454.96v-200.02c34.37,7.36,68.18,16.21,98.88,19.89,63.95,7.63,126.07-3.68,182.69-29.16,26.62-11.99,51.98-26.98,75.78-44.69,33.95-25.21,64.79-53.82,93.95-84.61,2.54,1.5,5.21,3,8.03,4.5,91.14,46.05,203.54,6.13,273.55-57.09,136.49-123.45,172.83-323.47,350.17-410.67,41.41-20.3,86.91-33.79,133.39-38.02,36.34-3.27,73.67-1.09,109.59,5.59,24.37,4.36,46.91,11.45,69.3,21.66,13.66,6.27,26.06,13.49,37.33,21.39v15.81Z"/><path class="cls-5" d="M977.79,205.98c-210.02,73.47-278.47,243.94-280.92,323.04-3.18,102.62,55.72,325.49,280.92,448.56H-454.97v-14.94c52.66-52.53,126.13-80.7,200.1-86.82,49.23-4.16,98.09-2.82,146.09,9.18,109.6,27.31,214.91,86.21,332.23,55.23,18.49-4.9,36.61-12.86,53.02-22.78,122.46-73.6,162.13-172.42,197.52-296.96,53.51-188.46,195.08-487.99,503.79-414.52Z"/><path class="cls-3" d="M977.79,186.39v15.8c-29.92-6.61-59.2-14.57-85.92-17.88-81.95-10.04-160.07,16.65-224.76,66.37-216.58,166.54-295.34,498.65-594,556.82-37.46,7.35-76.33,10.16-114.3,6.37-46.67-4.65-92.56-19.23-131.82-45.19-29.53-19.59-55.36-45.68-72.49-76.9-13.42-24.61-21.48-52.17-22.25-80.21-3.71-130.91,119.29-201.57,222.46-249.08,3.2-1.35,6.26-2.82,9.46-4.29-48.46,92.09-67.51,230.71,40.27,285.2,91.03,46.04,203.54,6.25,273.35-56.94,136.67-123.56,172.98-323.53,350.31-410.72,41.42-20.33,86.94-33.8,133.35-37.96,36.44-3.31,73.77-1.1,109.7,5.51,24.16,4.41,46.92,11.51,69.17,21.68,13.68,6.25,26.21,13.47,37.46,21.43Z"/></g></g></svg>