<?xml version="1.0" encoding="UTF-8"?><svg id="Layer_1" xmlns="http://www.w3.org/2000/svg" viewBox="0 0 862.3 394.9"><defs><style>.cls-1{fill:#fff;}</style></defs><g id="Layer_1-2"><path class="cls-1" d="M0,166.4V.1h54.1v166.3H0Z"/><rect id="gap-fix" class="cls-1" x="265.2" y="176.8" width="6.2" height="41.4"/><rect class="cls-1" x="471" y="173.6" width="42.8" height="12.7"/><path class="cls-1" d="M268.9,176.8h-11.7c-.3,0-.5-.3-.5-.5V23.3C256.7,9.8,242.1.1,223.4.1s-28.6,2.3-36.7,12.5C180.7,4.3,172.9.1,157,.1s-28.6,3.6-35.1,10.7V.1h-54.1v166.3h54.1V42.3c0-.3.3-.5.5-.5h12.2c.3,0,.5.3.5.5v124.1h54.1V42.3c0-.3.3-.5.5-.5h12.8c.3,0,.5.3.5.5v155.4c0,10.7,13.8,20.6,27.1,20.6h38.8"/><path class="cls-1" d="M363.8.1h-67.4c-18,0-27.1,7-27.1,21.1v30.7h54.1v-9.6c0-.3.3-.5.5-.5h12.2c.3,0,.5.3.5.5v20.3h-40.3c-18,0-27.1,6.8-27.1,20.6v62.7c0,13.8,9.1,20.6,27.1,20.6h94.5V21.3c0-14.1-9.1-21.1-27.1-21.1l.1-.1ZM336.8,125h-12.8c-.3,0-.5-.3-.5-.5v-25c0-.3.3-.5.5-.5h12.8v26Z"/><path class="cls-1" d="M430.7.1c-18,0-27.1,7-27.1,21.1v124.6c0,13.8,9.1,20.6,27.1,20.6h40.3v9.9c0,.3,26.7.5,26.7.5v41.4h.4c18,0,27.1-6.8,27.1-20.6V.1h-94.5ZM471,125h-12.8c-.3,0-.5-.3-.5-.5V42.3c0-.3.3-.5.5-.5h12.8v83.3-.1Z"/><path class="cls-1" d="M538.7,166.4V.1h54.1v166.3h-54.1Z"/><path class="cls-1" d="M701.1,218.2c-18.2,0-27.3-6.8-27.3-20.6V42.2c0-.3-.3-.5-.5-.5h-12.2c-.3,0-.5.3-.5.5v124.1h-54.1V0h54.1v10.7c9.1-7,22.6-10.7,40.3-10.7s27.1,7,27.1,21.1v155.1c0,.3.3.5.5.5h133.8v41.4h-161.1l-.1.1ZM767.7,166.4c-18,0-27.1-6.8-27.1-20.6V21.2c0-14.1,9.1-21.1,27.1-21.1h67.4c18,0,27.1,7,27.1,21.1v83h-67.4v20.3c0,.3.3.5.5.5h12.2c.3,0,.5-.3.5-.5v-9.9h54.1v31.2c0,13.8-9.1,20.6-27.1,20.6h-67.4.1ZM808,42.3c0-.3-.3-.5-.5-.5h-12.2c-.3,0-.5.3-.5.5v23.2h13.3v-23.2h-.1Z"/><path class="cls-1" d="M363.3,394.9c-18,0-27.1-6.8-27.1-20.6v-97.3c0-.3-.3-.5-.5-.5h-12.7v66.6h-54.1v-166.3h94.5c18,0,26.8,7,26.8,21.1v48.4c0,8.1-4.4,12.5-13.3,13.5,9.1,1.3,13.5,5.7,13.5,13.8v79.4c0,.3.3.5.5.5h67.1v41.4h-94.7,0ZM336.3,219c0-.3-.3-.5-.5-.5h-12.7v25h12.7c.3,0,.5-.3.5-.5v-24ZM470.5,176.8h27.6c18,0,27.1,7,27.1,21.1v61.9c0,14.1-9.1,21.1-27.1,21.1h-40.3v62.2h-54.1v-166.3h66.9M471.1,219c0-.3-.3-.5-.5-.5h-12.8v23.2h12.8c.3,0,.5-.3.5-.5v-22.2Z"/></g></svg>