<?xml version="1.0" encoding="UTF-8"?>
<svg xmlns="http://www.w3.org/2000/svg" version="1.1" xmlns:xlink="http://www.w3.org/1999/xlink" viewBox="0 0 2000 2000">
  <defs>
    <style>
      .cls-1 {
        fill: #fff;
      }

      .cls-2 {
        fill: none;
      }

      .cls-3 {
        fill: url(#linear-gradient-3);
      }

      .cls-3, .cls-4, .cls-5, .cls-6 {
        fill-rule: evenodd;
      }

      .cls-4 {
        fill: url(#linear-gradient-5);
      }

      .cls-5 {
        fill: url(#linear-gradient-2);
      }

      .cls-6 {
        fill: url(#linear-gradient-4);
      }

      .cls-7 {
        fill: url(#linear-gradient);
      }

      .cls-8 {
        clip-path: url(#clippath);
      }
    </style>
    <clipPath id="clippath">
      <circle class="cls-2" cx="1000" cy="1000" r="900"/>
    </clipPath>
    <linearGradient id="linear-gradient" x1="499.8" y1="1500.5" x2="502.8" y2="1500.5" gradientTransform="translate(-1391728.6 144061) rotate(65.7) scale(884.7 -884.7)" gradientUnits="userSpaceOnUse">
      <stop offset="0" stop-color="#2a335c"/>
      <stop offset=".5" stop-color="#563153"/>
      <stop offset="1" stop-color="#db2b38"/>
    </linearGradient>
    <linearGradient id="linear-gradient-2" x1="498.7" y1="1501" x2="501.7" y2="1501" gradientTransform="translate(-542113.2 205649) rotate(50.9) scale(366.7 -366.7)" gradientUnits="userSpaceOnUse">
      <stop offset="0" stop-color="#2a335c"/>
      <stop offset="1" stop-color="#db2b38"/>
    </linearGradient>
    <linearGradient id="linear-gradient-3" x1="500.2" y1="1499.3" x2="503.2" y2="1499.3" gradientTransform="translate(-628913.6 61637.3) rotate(66) scale(400 -400)" xlink:href="#linear-gradient-2"/>
    <linearGradient id="linear-gradient-4" x1="500.1" y1="1500.1" x2="503.1" y2="1500.1" gradientTransform="translate(-732729.3 208798.1) rotate(55.7) scale(481.8 -481.8)" gradientUnits="userSpaceOnUse">
      <stop offset="0" stop-color="#db2b38"/>
      <stop offset="1" stop-color="#2a335c"/>
    </linearGradient>
    <linearGradient id="linear-gradient-5" x1="500.3" y1="1501.3" x2="503.3" y2="1501.3" gradientTransform="translate(687305.6 -63150.9) rotate(-113.8) scale(435.6 -435.6)" xlink:href="#linear-gradient-4"/>
  </defs>
  <!-- Generator: Adobe Illustrator 28.7.1, SVG Export Plug-In . SVG Version: 1.2.0 Build 142)  -->
  <g>
    <g id="Layer_1">
      <g class="cls-8">
        <g>
          <rect class="cls-7" x="-998.6" y=".5" width="2998.5" height="1999"/>
          <path class="cls-5" d="M19.9.5h1980.1v376.2c-62.5-13.8-124-30.5-179.9-37.4-171.2-21-334.7,34.9-470.3,138.9C896.4,826.8,731.6,1521.8,106.5,1643.5c-78.2,15.4-159.7,21.3-239.1,13.3-97.6-9.7-193.8-40.2-275.8-94.6-61.8-41-115.8-95.6-151.7-160.9-28.2-51.5-44.9-109.2-46.6-167.9-7.7-274,249.6-421.8,465.7-521.3,112.8-51.8,246.8-106.4,306-224.3,80.5-159.7-12.8-314.2-108.9-441.8C44.2,30.5,32.2,15.3,19.9.5Z"/>
          <path class="cls-3" d="M1999.8,376.7v250.9c.3,8.8.3,17.7,0,26.5-8.3,288-294.2,446.3-535.6,553.5-129.7,57.6-283.9,118.3-352,249.5-92.6,177.7,14.7,349.6,125.3,491.6,13.6,17.4,27.4,34.2,41.6,50.8H-998.6v-418.6c71.9,15.4,142.7,33.9,206.9,41.6,133.8,16,263.8-7.7,382.4-61,55.7-25.1,108.8-56.5,158.6-93.5,71-52.8,135.6-112.6,196.6-177.1,5.3,3.1,10.9,6.3,16.8,9.4,190.7,96.4,426,12.8,572.5-119.5,285.7-258.4,361.7-677,732.9-859.5,86.7-42.5,181.9-70.7,279.2-79.6,76.1-6.8,154.2-2.3,229.4,11.7,51,9.1,98.2,24,145,45.3,28.6,13.1,54.5,28.2,78.1,44.8v33.1Z"/>
          <path class="cls-6" d="M1999.9,384.7c-439.5,153.8-582.8,510.5-587.9,676.1-6.7,214.8,116.6,681.2,587.9,938.8H-998.6v-31.3c110.2-109.9,264-168.9,418.8-181.7,103-8.7,205.3-5.9,305.7,19.2,229.4,57.2,449.8,180.4,695.3,115.6,38.7-10.3,76.6-26.9,111-47.7,256.3-154,339.3-360.9,413.4-621.5,112-394.4,408.3-1021.3,1054.4-867.5Z"/>
          <path class="cls-4" d="M1999.9,343.7v33.1c-62.6-13.8-123.9-30.5-179.8-37.4-171.5-21-335,34.9-470.4,138.9C896.5,826.8,731.6,1521.8,106.6,1643.5c-78.4,15.4-159.7,21.3-239.2,13.3-97.7-9.7-193.7-40.2-275.9-94.6-61.8-41-115.9-95.6-151.7-160.9-28.1-51.5-45-109.2-46.6-167.9-7.8-274,249.6-421.8,465.6-521.3,6.7-2.8,13.1-5.9,19.8-9-101.4,192.7-141.3,482.8,84.3,596.9,190.5,96.4,426,13.1,572.1-119.2,286-258.6,362-677.1,733.2-859.6,86.7-42.5,182-70.7,279.1-79.4,76.3-6.9,154.4-2.3,229.6,11.5,50.6,9.2,98.2,24.1,144.8,45.4,28.6,13.1,54.9,28.2,78.4,44.9Z"/>
        </g>
      </g>
    </g>
    <g id="Layer_2">
      <g>
        <g>
          <path class="cls-1" d="M279.1,992.3v-279.3h90.9v279.3h-90.9Z"/>
          <rect id="gap-fix" class="cls-1" x="724.4" y="1009.8" width="10.4" height="69.5"/>
          <rect class="cls-1" x="1070.2" y="1004.3" width="71.9" height="21.3"/>
          <path class="cls-1" d="M730.6,1009.8h-19.7c-.4,0-.9-.4-.9-.9v-257c0-22.7-24.5-38.9-55.9-38.9s-48.1,3.9-61.6,21c-10.1-14-23.2-21-49.8-21s-48.1,6.1-59,17.9v-17.9h-90.9v279.3h90.9v-208.5c0-.4.4-.9.9-.9h20.5c.4,0,.9.4.9.9v208.5h90.9v-208.5c0-.4.4-.9.9-.9h21.4c.4,0,.9.4.9.9v260.9c0,17.9,23.2,34.5,45.5,34.5h65.1"/>
          <path class="cls-1" d="M890.1,713h-113.2c-30.2,0-45.5,11.8-45.5,35.4v51.6h90.9v-16.2c0-.4.4-.9.9-.9h20.5c.4,0,.9.4.9.9v34.1h-67.7c-30.2,0-45.5,11.4-45.5,34.5v105.3c0,23.2,15.3,34.5,45.5,34.5h158.7v-243.9c0-23.6-15.3-35.4-45.5-35.4ZM844.7,922.8h-21.4c-.4,0-.9-.4-.9-.9v-42c0-.4.4-.9.9-.9h21.4v43.7Z"/>
          <path class="cls-1" d="M1002.4,713c-30.2,0-45.5,11.8-45.5,35.4v209.4c0,23.2,15.3,34.5,45.5,34.5h67.7v16.6c0,.4,44.8.9,44.8.9v69.5h.7c30.2,0,45.5-11.4,45.5-34.5v-331.7h-158.7ZM1070.2,922.8h-21.4c-.4,0-.9-.4-.9-.9v-138.1c0-.4.4-.9.9-.9h21.4v139.9Z"/>
          <path class="cls-1" d="M1183.8,992.3v-279.3h90.9v279.3h-90.9Z"/>
          <path class="cls-1" d="M1456.5,1079.2c-30.6,0-45.9-11.4-45.9-34.5v-260.9c0-.4-.4-.9-.9-.9h-20.5c-.4,0-.9.4-.9.9v208.5h-90.9v-279.3h90.9v17.9c15.3-11.8,38-17.9,67.7-17.9s45.5,11.8,45.5,35.4v260.5c0,.4.4.9.9.9h224.6v69.5h-270.5ZM1568.4,992.3c-30.2,0-45.5-11.4-45.5-34.5v-209.4c0-23.6,15.3-35.4,45.5-35.4h113.2c30.2,0,45.5,11.8,45.5,35.4v139.4h-113.2v34.1c0,.4.4.9.9.9h20.5c.4,0,.9-.4.9-.9v-16.6h90.9v52.4c0,23.2-15.3,34.5-45.5,34.5h-113.2ZM1636.2,783.8c0-.4-.4-.9-.9-.9h-20.5c-.4,0-.9.4-.9.9v38.9h22.3v-38.9Z"/>
        </g>
        <path class="cls-1" d="M889.3,1376c-30.2,0-45.5-11.4-45.5-34.5v-163.5c0-.4-.4-.9-.9-.9h-21.4v111.9h-90.9v-279.3h158.7c30.2,0,45,11.8,45,35.4v81.3c0,13.5-7.4,21-22.3,22.7,15.3,2.2,22.7,9.6,22.7,23.2v133.3c0,.4.4.9.9.9h112.8v69.5h-159.1ZM843.8,1080.6c0-.4-.4-.9-.9-.9h-21.4v42h21.4c.4,0,.9-.4.9-.9v-40.2ZM1069.3,1009.8h46.3c30.2,0,45.5,11.8,45.5,35.4v104c0,23.6-15.3,35.4-45.5,35.4h-67.7v104.5h-90.9v-279.3h112.3M1070.2,1080.6c0-.4-.4-.9-.9-.9h-21.4v38.9h21.4c.4,0,.9-.4.9-.9v-37.1Z"/>
      </g>
    </g>
  </g>
</svg>