<?xml version="1.0" encoding="UTF-8"?><svg id="Layer_1" xmlns="http://www.w3.org/2000/svg" viewBox="0 0 360.97 71.8"><defs><style>.cls-1{fill:#ff71d5;}.cls-2{fill:#fff;}</style></defs><path class="cls-2" d="M24.34,51.05v4.39c-.05.19-.07.34-.07.43s-.02.22-.07.36c-.05.19-.12.36-.22.5-.19.19-.41.36-.65.5l.07.22c0,.1.02.19.07.29v.14s.07.1.07.14v.29c0,.29-.07.58-.22.86-.19.43-.53.72-1.01.86-.43.19-.86.19-1.3,0-.29-.1-.53-.24-.72-.43-.1-.1-.17-.19-.22-.29,0-.05-.02-.12-.07-.22l-.07-.07s-.1-.12-.14-.22c-1.1-1.68-1.61-4.15-1.51-7.42.05-1.1.17-2.23.36-3.38-.1-1.3-.24-2.45-.43-3.46-.62-3.07-1.66-5.21-3.1-6.41-1.25-.34-2.57-.41-3.96-.22-2.83.34-4.94,1.34-6.34,3.02v.07c.1,1.44.19,3.05.29,4.82l.58,5.4c.53,5.57.79,10.37.79,14.4,0,.53-.18.97-.54,1.33s-.8.54-1.33.54-.97-.18-1.33-.54-.54-.8-.54-1.33v-1.15c-.38-.34-.6-.77-.65-1.3-.14-1.63-.34-6.1-.58-13.39-.05-1.44-.1-2.66-.14-3.67-.43-4.03-.72-6.96-.86-8.78v-.58c-.05-.53.07-1,.36-1.4.29-.41.7-.66,1.22-.76.62-.1,1.15.07,1.58.5,4.51-1.92,8.23-2.38,11.16-1.37.72.29,1.39.62,2.02,1.01,1.34.48,2.5,1.18,3.46,2.09.58.53,1.1,1.1,1.58,1.73.82-1.39,1.7-2.57,2.66-3.53,2.35-2.26,4.9-2.98,7.63-2.16,1.77.53,3.26,1.82,4.46,3.89.91,1.58,1.61,3.58,2.09,5.98.91,4.27,1.1,8.06.58,11.38-.34,2.06-1.01,4.27-2.02,6.62-.1.38-.67,1.87-1.73,4.46-.34.86-.98,1.25-1.94,1.15-.38.05-.77-.02-1.15-.22-.43-.29-.72-.68-.86-1.19s-.1-.97.14-1.4c.82-1.34,1.51-2.71,2.09-4.1.67-1.87,1.06-3.53,1.15-4.97.1-.96.01-2.54-.25-4.75-.26-2.21-.68-4.29-1.26-6.26-.62-2.3-1.37-3.96-2.23-4.97-.62-.77-1.27-1.01-1.94-.72-1.15.48-2.11,1.58-2.88,3.31-.77,1.58-1.32,3.62-1.66,6.12-.19,1.2-.34,2.47-.43,3.82Z"/><path class="cls-2" d="M67.76,40.1c.48-.14.94-.1,1.37.14.29.19.5.43.65.72.1.14.17.31.22.5.05.1.1.24.14.43.05.29.07.62.07,1.01.05,1.06,0,2.18-.14,3.38l-.07.58c0,.48-.01,1.88-.04,4.21-.02,2.33-.02,3.95,0,4.86.02.91.07,2.22.14,3.92.07,1.7.18,3.23.32,4.57.05.53-.08,1-.4,1.4-.31.41-.73.64-1.26.68-.53.05-1-.08-1.4-.4-.41-.31-.64-.73-.68-1.26-.14-1.58-.26-3.19-.36-4.82-1.3,1.73-2.98,3.14-5.04,4.25-2.06,1.1-4.22,1.78-6.48,2.02-2.93.34-5.65-.1-8.17-1.3s-4.31-3.22-5.36-6.05c-1.25-3.26-1.06-6.6.58-10.01,1.63-3.46,4.03-6.34,7.2-8.64,1.92-1.39,3.96-2.42,6.12-3.1,2.16-.67,4.39-.82,6.7-.43,2.3.38,4.27,1.49,5.9,3.31ZM46.81,58.75c-.24,0-.46-.07-.65-.22-.48-.19-.8-.53-.97-1.01-.17-.48-.16-.94.04-1.37-.48-.24-.82-.62-1.01-1.15.05.91.22,1.8.5,2.66.43,1.06,1.03,1.97,1.8,2.74-.14-.48-.1-.91.14-1.3l.14-.36ZM46.45,48.24c-1.2,1.82-1.92,3.62-2.16,5.4.62-1.44,1.34-3.24,2.16-5.4ZM52.28,56.45c-.96,1.68-1.73,3.1-2.3,4.25-.29.67-.79,1.03-1.51,1.08.86.43,1.82.7,2.88.79-.77-.53-1.01-1.22-.72-2.09.43-1.3.98-2.64,1.66-4.03ZM54.44,44.42c.53-1.2.98-2.35,1.37-3.46-1.06.34-2.09.82-3.1,1.44l-1.44,3.6.79-1.08c.67-.82,1.46-.98,2.38-.5ZM62.93,43.85c-.72,1.78-2.28,4.8-4.68,9.07-1.97,3.6-3.31,6.5-4.03,8.71-.14.48-.43.84-.86,1.08l1.01-.14c.29,0,.58-.02.86-.07-.14-.48-.07-.94.22-1.37l2.23-3.74,2.38-3.96c.58-1.01,1.21-2.22,1.91-3.64.69-1.42,1.23-2.72,1.62-3.92.19-.48.52-.84.97-1.08.46-.24.92-.29,1.4-.14l.29.14v-1.15c-.34-.14-.62-.36-.86-.65-1.39-1.68-3.24-2.57-5.54-2.66,0,.19-.02.36-.07.5-.43,1.54-1.03,3.14-1.8,4.82.58-1.15,1.08-2.23,1.51-3.24.19-.48.53-.82,1.01-1.01.48-.19.96-.19,1.44,0,.48.19.82.53,1.01,1.01.19.48.19.96,0,1.44ZM65.53,51.77c-.96,2.06-2.57,4.85-4.82,8.35-.1.14-.19.26-.29.36,1.87-1.2,3.17-2.66,3.89-4.39.48-1.15.89-2.59,1.22-4.32Z"/><path class="cls-2" d="M79.06,31.9c.05.38.17,2.5.36,6.34.14,2.78.38,4.97.72,6.55.43,2.06,1.1,3.6,2.02,4.61,1.01,1.1,2.45,1.66,4.32,1.66,1.73,0,3.46-.56,5.18-1.69,1.73-1.13,3.26-2.6,4.61-4.43.62-.82,1.1-1.51,1.44-2.09.14-.58.34-1.3.58-2.16l.58-2.16c.1-.33.17-.58.22-.72.05-.14.07-.26.07-.36.1-.14.17-.26.22-.36.19-.29.41-.5.65-.65.43-.19.86-.26,1.3-.22.43.1.79.34,1.08.72.48.58.77,1.44.86,2.59.05.77,0,1.73-.14,2.88-.19,1.87-.6,4.3-1.22,7.27-1.2,5.57-2.28,9.6-3.24,12.1-1.1,2.83-2.59,5.71-4.46,8.64-.43.67-1.03.96-1.8.86-.43.05-.84-.05-1.22-.29-.43-.29-.71-.68-.83-1.19-.12-.5-.04-.97.25-1.4,1.78-2.69,3.17-5.33,4.18-7.92.43-1.25,1.22-4.42,2.38-9.5-2.5,2.54-5.38,3.94-8.64,4.18-3.17.19-5.77-.46-7.81-1.94-2.04-1.49-3.52-3.53-4.43-6.12-1.44-4.03-1.75-8.93-.94-14.69v-.07c-.05-.48.08-.92.4-1.33.31-.41.72-.65,1.22-.72.5-.07.96.05,1.37.36.41.31.66.73.76,1.26Z"/><path class="cls-1" d="M124.42,37.73c2.98-2.11,6-3.17,9.07-3.17,2.45.05,4.22.89,5.33,2.52,1.2,1.78,1.34,4.2.43,7.27-1.01,3.46-3.29,7.2-6.84,11.23-.77.91-2.23,2.5-4.39,4.75l-4.03,4.46c-.34.43-.76.67-1.26.72-.5.05-.95-.1-1.33-.43-.24-.14-.41-.33-.5-.58-.86.53-1.63.43-2.3-.29-1.68-1.63-3.07-3.04-4.18-4.21-1.1-1.18-2.39-2.72-3.85-4.64-1.46-1.92-2.63-3.72-3.49-5.4-.86-1.68-1.58-3.59-2.16-5.72-.58-2.14-.82-4.24-.72-6.3.19-3.46,1.27-5.9,3.24-7.34,1.15-.86,2.45-1.36,3.89-1.48,1.44-.12,2.78.01,4.03.4,1.25.43,2.45,1.03,3.6,1.8,2.64,1.73,4.46,3.86,5.47,6.41ZM108.15,41.69c1.01-2.64,2.28-5.59,3.82-8.86-.91.05-1.7.31-2.38.79-1.01.72-1.56,2.21-1.66,4.46-.05,1.2.02,2.4.22,3.6ZM110.96,49.1c.53-1.34,1.51-3.58,2.95-6.7,1.49-3.26,2.59-5.78,3.31-7.56,0-.05.02-.1.07-.14l-.43-.29c-.38-.29-.79-.53-1.22-.72-2.4,5.28-4.27,9.84-5.62,13.68.29.58.6,1.15.94,1.73ZM114.34,54.07c1.34-3.46,3.34-8.11,5.98-13.97.19-.33.43-.6.72-.79-.24-.58-.55-1.15-.94-1.73-.62,1.63-1.54,3.77-2.74,6.41-1.97,4.32-3.1,6.84-3.38,7.56-.14.43-.43.74-.86.94l1.22,1.58ZM123.12,42.98c-2.45,5.42-4.34,9.86-5.69,13.32-.1.34-.29.6-.58.79l.43.43c.77-2.02,1.9-4.58,3.38-7.7l3.38-6.98c-.24.1-.5.14-.79.14h-.14ZM127.88,43.42c-.43.96-1.7,3.62-3.82,7.99-1.54,3.22-2.66,5.86-3.38,7.92-.14.38-.41.7-.79.94l1.3,1.37c.14.1.24.22.29.36.82-.96,1.87-2.11,3.17-3.46-.53.24-1.06.22-1.58-.07-.48-.19-.8-.53-.97-1.01-.17-.48-.13-.96.11-1.44.77-1.63,2.26-4.42,4.46-8.35,1.97-3.46,3.36-6.17,4.18-8.14.19-.48.53-.82,1.01-1.01-1.92.38-3.7,1.15-5.33,2.3.14.05.26.1.36.14.48.24.82.6,1.01,1.08.19.48.19.94,0,1.37ZM126.58,55.51l-1.01,1.94,1.58-1.58c-.1-.05-.17-.1-.22-.14-.14-.05-.26-.12-.36-.22ZM133.06,43.63l.43.14c.43.29.72.68.86,1.19.14.5.1.97-.14,1.4l-2.52,4.25c1.97-2.59,3.29-5.02,3.96-7.27.58-2.02.6-3.41.07-4.18-.38-.58-1.13-.86-2.23-.86-.24,0-.5.02-.79.07.19,0,.38.05.58.14.48.19.82.53,1.01,1.01.19.48.19.96,0,1.44l-1.22,2.66Z"/><path class="cls-2" d="M146.02,64.87v-.14c-.05.19-.1.36-.14.5-.1-.29-.17-.62-.22-1.01-.1-.58-.17-1.25-.22-2.02v-3.1c.05-4.42.43-8.04,1.15-10.87,0-2.88-.1-5.47-.29-7.78-.05-.48.1-.92.43-1.33.34-.41.76-.64,1.26-.68.5-.05.96.1,1.37.43.41.34.64.77.68,1.3,0,.24.02.48.07.72,2.5-3.07,6.05-4.85,10.66-5.33.53-.05,1,.1,1.4.43.41.34.64.76.68,1.26.05.5-.1.96-.43,1.37-.34.41-.75.64-1.22.68-4.7.48-7.97,2.64-9.79,6.48-.43.86-.79,1.85-1.08,2.95,0,1.15-.1,4.2-.29,9.14l-.22,5.54-.07,1.3v.29l.22-1.08c.05,1.06-.24,1.97-.86,2.74-.67.82-1.51.7-2.52-.36-.29-.24-.5-.55-.65-.94.05-.14.07-.31.07-.5ZM145.95,65.38s-.02-.1-.07-.14c-.1.53-.12.84-.07.94l.14-.79Z"/><path class="cls-2" d="M207.58,33.41c1.34,1.3,2.33,2.14,2.95,2.52.43.29.71.68.83,1.19.12.5.04.97-.25,1.4s-.68.71-1.19.83c-.5.12-.97.04-1.4-.25s-.84-.6-1.22-.94c-.86,0-1.46-.36-1.8-1.08-.14-.38-.36-.77-.65-1.15h-.07c-.58-.58-1.08-1.03-1.51-1.37-1.3-.82-2.81-1.34-4.54-1.58-2.74-.34-4.68.17-5.83,1.51-.72,1.2-.84,2.78-.36,4.75.24.96,1.01,2.47,2.3,4.54,2.3,3.79,3.53,5.83,3.67,6.12,3.07,5.57,3.5,9.91,1.3,13.03-.77,1.73-2.23,3.12-4.39,4.18-.48.24-.96.28-1.44.11-.48-.17-.84-.47-1.08-.9-.05-.1-.1-.17-.14-.22-.24-.43-.32-.89-.25-1.37.07-.48.3-.89.68-1.22l1.37-.86c.48-.34.86-.61,1.15-.83.29-.22.55-.47.79-.76h.07c.14-.48.19-1.03.14-1.66-.05-1.63-.96-4.08-2.74-7.34-.19-.38-.55-1.08-1.08-2.09l-1.3-2.38-1.15-2.16c-.43-.86-.77-1.66-1.01-2.38-1.49-3.79-1.58-6.98-.29-9.58.19-.43.41-.82.65-1.15.67-1.01,1.56-1.82,2.66-2.45,1.54-.86,3.25-1.26,5.15-1.19,1.9.07,3.76.56,5.58,1.48.77.34,1.51.79,2.23,1.37.82.53,1.54,1.15,2.16,1.87Z"/><path class="cls-2" d="M239.69,40.1c.48-.14.94-.1,1.37.14.29.19.5.43.65.72.1.14.17.31.22.5.05.1.1.24.14.43.05.29.07.62.07,1.01.05,1.06,0,2.18-.14,3.38l-.07.58c0,.48-.01,1.88-.04,4.21-.02,2.33-.02,3.95,0,4.86.02.91.07,2.22.14,3.92.07,1.7.18,3.23.32,4.57.05.53-.08,1-.4,1.4-.31.41-.73.64-1.26.68-.53.05-1-.08-1.4-.4-.41-.31-.64-.73-.68-1.26-.14-1.58-.26-3.19-.36-4.82-1.3,1.73-2.98,3.14-5.04,4.25-2.06,1.1-4.22,1.78-6.48,2.02-2.93.34-5.65-.1-8.17-1.3s-4.31-3.22-5.36-6.05c-1.25-3.26-1.06-6.6.58-10.01,1.63-3.46,4.03-6.34,7.2-8.64,1.92-1.39,3.96-2.42,6.12-3.1,2.16-.67,4.39-.82,6.7-.43,2.3.38,4.27,1.49,5.9,3.31ZM218.74,58.75c-.24,0-.46-.07-.65-.22-.48-.19-.8-.53-.97-1.01-.17-.48-.16-.94.04-1.37-.48-.24-.82-.62-1.01-1.15.05.91.22,1.8.5,2.66.43,1.06,1.03,1.97,1.8,2.74-.14-.48-.1-.91.14-1.3l.14-.36ZM218.38,48.24c-1.2,1.82-1.92,3.62-2.16,5.4.62-1.44,1.34-3.24,2.16-5.4ZM224.21,56.45c-.96,1.68-1.73,3.1-2.3,4.25-.29.67-.79,1.03-1.51,1.08.86.43,1.82.7,2.88.79-.77-.53-1.01-1.22-.72-2.09.43-1.3.98-2.64,1.66-4.03ZM226.37,44.42c.53-1.2.98-2.35,1.37-3.46-1.06.34-2.09.82-3.1,1.44l-1.44,3.6.79-1.08c.67-.82,1.46-.98,2.38-.5ZM234.87,43.85c-.72,1.78-2.28,4.8-4.68,9.07-1.97,3.6-3.31,6.5-4.03,8.71-.14.48-.43.84-.86,1.08l1.01-.14c.29,0,.58-.02.86-.07-.14-.48-.07-.94.22-1.37l2.23-3.74,2.38-3.96c.58-1.01,1.21-2.22,1.91-3.64.69-1.42,1.23-2.72,1.62-3.92.19-.48.52-.84.97-1.08.46-.24.92-.29,1.4-.14l.29.14v-1.15c-.34-.14-.62-.36-.86-.65-1.39-1.68-3.24-2.57-5.54-2.66,0,.19-.02.36-.07.5-.43,1.54-1.03,3.14-1.8,4.82.58-1.15,1.08-2.23,1.51-3.24.19-.48.53-.82,1.01-1.01.48-.19.96-.19,1.44,0,.48.19.82.53,1.01,1.01.19.48.19.96,0,1.44ZM237.46,51.77c-.96,2.06-2.57,4.85-4.82,8.35-.1.14-.19.26-.29.36,1.87-1.2,3.17-2.66,3.89-4.39.48-1.15.89-2.59,1.22-4.32Z"/><path class="cls-2" d="M267.99,51.05v4.39c-.05.19-.07.34-.07.43s-.02.22-.07.36c-.05.19-.12.36-.22.5-.19.19-.41.36-.65.5l.07.22c0,.1.02.19.07.29v.14s.07.1.07.14v.29c0,.29-.07.58-.22.86-.19.43-.53.72-1.01.86-.43.19-.86.19-1.3,0-.29-.1-.53-.24-.72-.43-.1-.1-.17-.19-.22-.29,0-.05-.02-.12-.07-.22l-.07-.07s-.1-.12-.14-.22c-1.1-1.68-1.61-4.15-1.51-7.42.05-1.1.17-2.23.36-3.38-.1-1.3-.24-2.45-.43-3.46-.62-3.07-1.66-5.21-3.1-6.41-1.25-.34-2.57-.41-3.96-.22-2.83.34-4.94,1.34-6.34,3.02v.07c.1,1.44.19,3.05.29,4.82l.58,5.4c.53,5.57.79,10.37.79,14.4,0,.53-.18.97-.54,1.33s-.8.54-1.33.54-.97-.18-1.33-.54-.54-.8-.54-1.33v-1.15c-.38-.34-.6-.77-.65-1.3-.14-1.63-.34-6.1-.58-13.39-.05-1.44-.1-2.66-.14-3.67-.43-4.03-.72-6.96-.86-8.78v-.58c-.05-.53.07-1,.36-1.4.29-.41.7-.66,1.22-.76.62-.1,1.15.07,1.58.5,4.51-1.92,8.23-2.38,11.16-1.37.72.29,1.39.62,2.02,1.01,1.34.48,2.5,1.18,3.46,2.09.58.53,1.1,1.1,1.58,1.73.82-1.39,1.7-2.57,2.66-3.53,2.35-2.26,4.9-2.98,7.63-2.16,1.77.53,3.26,1.82,4.46,3.89.91,1.58,1.61,3.58,2.09,5.98.91,4.27,1.1,8.06.58,11.38-.34,2.06-1.01,4.27-2.02,6.62-.1.38-.67,1.87-1.73,4.46-.34.86-.98,1.25-1.94,1.15-.38.05-.77-.02-1.15-.22-.43-.29-.72-.68-.86-1.19s-.1-.97.14-1.4c.82-1.34,1.51-2.71,2.09-4.1.67-1.87,1.06-3.53,1.15-4.97.1-.96.01-2.54-.25-4.75-.26-2.21-.68-4.29-1.26-6.26-.62-2.3-1.37-3.96-2.23-4.97-.62-.77-1.27-1.01-1.94-.72-1.15.48-2.11,1.58-2.88,3.31-.77,1.58-1.32,3.62-1.66,6.12-.19,1.2-.34,2.47-.43,3.82Z"/><path class="cls-2" d="M308.74,51.05v4.39c-.05.19-.07.34-.07.43s-.03.22-.07.36c-.05.19-.12.36-.22.5-.19.19-.41.36-.65.5l.07.22c0,.1.02.19.07.29v.14s.07.1.07.14v.29c0,.29-.07.58-.22.86-.19.43-.53.72-1.01.86-.43.19-.86.19-1.3,0-.29-.1-.53-.24-.72-.43-.1-.1-.17-.19-.22-.29,0-.05-.02-.12-.07-.22l-.07-.07s-.1-.12-.14-.22c-1.11-1.68-1.61-4.15-1.51-7.42.05-1.1.17-2.23.36-3.38-.1-1.3-.24-2.45-.43-3.46-.62-3.07-1.66-5.21-3.1-6.41-1.25-.34-2.57-.41-3.96-.22-2.83.34-4.94,1.34-6.34,3.02v.07c.1,1.44.19,3.05.29,4.82l.58,5.4c.53,5.57.79,10.37.79,14.4,0,.53-.18.97-.54,1.33s-.8.54-1.33.54-.97-.18-1.33-.54-.54-.8-.54-1.33v-1.15c-.38-.34-.6-.77-.65-1.3-.14-1.63-.34-6.1-.58-13.39-.05-1.44-.1-2.66-.14-3.67-.43-4.03-.72-6.96-.86-8.78v-.58c-.05-.53.07-1,.36-1.4.29-.41.7-.66,1.22-.76.62-.1,1.15.07,1.58.5,4.51-1.92,8.23-2.38,11.16-1.37.72.29,1.39.62,2.02,1.01,1.34.48,2.5,1.18,3.46,2.09.58.53,1.1,1.1,1.58,1.73.82-1.39,1.7-2.57,2.66-3.53,2.35-2.26,4.9-2.98,7.63-2.16,1.78.53,3.26,1.82,4.46,3.89.91,1.58,1.61,3.58,2.09,5.98.91,4.27,1.1,8.06.58,11.38-.34,2.06-1.01,4.27-2.02,6.62-.1.38-.67,1.87-1.73,4.46-.34.86-.98,1.25-1.94,1.15-.38.05-.77-.02-1.15-.22-.43-.29-.72-.68-.86-1.19-.14-.5-.1-.97.14-1.4.82-1.34,1.51-2.71,2.09-4.1.67-1.87,1.05-3.53,1.15-4.97.1-.96.01-2.54-.25-4.75-.26-2.21-.68-4.29-1.26-6.26-.62-2.3-1.37-3.96-2.23-4.97-.62-.77-1.27-1.01-1.94-.72-1.15.48-2.11,1.58-2.88,3.31-.77,1.58-1.32,3.62-1.66,6.12-.19,1.2-.34,2.47-.43,3.82Z"/><path class="cls-1" d="M345.89,16.2l2.95-1.94c2.21-1.39,4.08-2.33,5.62-2.81,2.54-.86,4.34-.53,5.4,1.01.58.86.74,1.87.5,3.02-.14.77-.5,1.63-1.08,2.59-.82,1.49-2.16,3.26-4.03,5.33-1.25,1.44-2.81,3.1-4.68,4.97l-3.1,3.1c-1.01,1.06-2.16,2.45-3.46,4.18l-3.38,4.61c-.34.38-.76.61-1.26.68-.5.07-.97-.04-1.4-.32-.43-.33-.67-.79-.72-1.37-.1.1-.19.17-.29.22-.48.19-.96.2-1.44.04-.48-.17-.84-.49-1.08-.97l-1.8-3.67c-.86-1.78-1.51-3.16-1.94-4.14-.43-.98-.95-2.33-1.55-4.03-.6-1.7-.98-3.2-1.15-4.5-.17-1.3-.19-2.8-.07-4.5.12-1.7.44-3.37.97-5,.43-1.15,1.37-2.69,2.81-4.61,1.44-1.82,2.95-3.43,4.54-4.82,2.06-1.78,3.96-2.69,5.69-2.74,2.5-.1,4.22,1.32,5.18,4.25.91,2.83.6,6.41-.94,10.73l-.29.72ZM331.78,16.49c1.3-2.88,2.66-5.42,4.1-7.63-1.87,2.16-3,3.86-3.38,5.11-.34.82-.58,1.66-.72,2.52ZM337.25,13.9c-1.39,2.54-2.79,5.66-4.18,9.36-.14.43-.41.74-.79.94.19.72.46,1.49.79,2.3,2.02-6.29,3.41-10.49,4.18-12.6ZM336.96,49.46c-.14-.43-.41-.98-.79-1.66-.29-.43-.37-.9-.25-1.4.12-.5.41-.89.86-1.15.46-.26.94-.33,1.44-.22.5.12.88.42,1.12.9.29.38.5.77.65,1.15.34.24.55.58.65,1.01,0,.24.02.46.07.65.29,1.01.22,1.97-.22,2.88l-.14.29-.36.86c-.34.91-.53,1.58-.58,2.02,0,.1.02.22.07.36.34.86.55,1.49.65,1.87.14,1.1.19,2.71.14,4.82l-.07,2.81c-.58,0-1.13-.14-1.66-.43-.62-.05-1.09-.22-1.4-.5-.31-.29-.49-.55-.54-.79-.05-.24-.07-.62-.07-1.15v-.29c-.48-1.39-.79-3.19-.94-5.4v-2.02c.14-1.3.58-2.52,1.3-3.67.1-.33.12-.65.07-.94ZM337.46,35.14c-.14.05-.26.1-.36.14l.79,1.66c.05.14.1.31.14.5l.58-.79c-.1-.05-.17-.07-.22-.07-.53-.34-.84-.82-.94-1.44ZM339.84,17.71c.38-.05.77.02,1.15.22.09.05.17.1.22.14.14-.34.38-.95.72-1.84.33-.89.58-1.55.72-1.98,1.25-3.55,1.54-6.34.86-8.35-.05-.19-.1-.36-.14-.5-.1.24-.26.46-.5.65-1.3,1.3-2.52,2.81-3.67,4.54.43-.1.84-.07,1.22.07.48.14.83.46,1.04.94.22.48.23.96.04,1.44l-1.66,4.68ZM343.01,27.65c0-.38.07-.72.22-1.01l3.46-6.34-2.95,2.3c-.19.62-.31,1.22-.36,1.8-.1.72-.46,1.22-1.08,1.51l-.94,1.87c.53-.33,1.08-.38,1.66-.14Z"/></svg>